<mxfile host="app.diagrams.net" modified="2023-03-23T19:34:07.679Z" agent="Mozilla/5.0 (iPhone; CPU iPhone OS 16_1_1 like Mac OS X) AppleWebKit/605.1.15 (KHTML, like Gecko) Version/16.1 Mobile/15E148 Safari/604.1" version="21.1.0" etag="NxwVwIJk04f6gGsXQxu5" type="github">
  <diagram name="第 1 页" id="F0BYq8sX_8bTlsFAWADg">
    <mxGraphModel>
      <root>
        <mxCell id="0" />
        <mxCell id="1" parent="0" />
      </root>
    </mxGraphModel>
  </diagram>
</mxfile>
